<svg width="480" height="55" viewBox="0 0 480 55" fill="none" xmlns="http://www.w3.org/2000/svg">
<g clip-path="url(#clip0_222_1303)">
<mask id="mask0_222_1303" style="mask-type:luminance" maskUnits="userSpaceOnUse" x="0" y="0" width="480" height="55">
<path d="M480 0H0V55H480V0Z" fill="white"/>
</mask>
<g mask="url(#mask0_222_1303)">
<path d="M4.7196 6.21407C1.58262 9.37074 0 13.2099 0 17.6606V55.0003H50.234V46.6536H8.29462V30.9129H50.234V22.5662H8.29462V17.6606C8.29462 15.4708 9.04354 13.6507 10.5696 12.1151C12.1381 10.5652 13.9468 9.81153 16.1371 9.81153H50.234V1.46484H16.1371C11.7001 1.46484 7.85658 3.0574 4.7196 6.21407Z" fill="white"/>
<path d="M98.0659 22.5662H64.4211V1.46484H56.1265V55.0003H64.4211V30.9129H98.0659V55.0003H106.36V1.46484H98.0659V22.5662Z" fill="white"/>
<path d="M121.975 11.2477C122.936 10.2808 124.052 9.81153 125.38 9.81153H162.487V1.46484H125.38C121.791 1.46484 118.682 2.75879 116.111 5.30404C113.553 7.87772 112.253 11.0344 112.253 14.6745V17.6606C112.253 21.3007 113.553 24.4431 116.111 27.031C118.668 29.6047 121.791 30.9129 125.38 30.9129H149.36C150.702 30.9129 151.818 31.3821 152.779 32.349C153.726 33.2875 154.192 34.4108 154.192 35.7616V41.7906C154.192 43.1414 153.726 44.2647 152.765 45.2174C151.804 46.1701 150.688 46.6536 149.36 46.6536H112.253V55.0003H149.36C152.949 55.0003 156.072 53.6921 158.629 51.1184C161.187 48.5447 162.487 45.4023 162.487 41.7906V35.7616C162.487 32.1215 161.187 28.9791 158.615 26.3912C156.058 23.8459 152.935 22.552 149.36 22.552H125.38C124.052 22.552 122.921 22.0827 121.975 21.1158C121.014 20.1489 120.548 19.0114 120.548 17.6463V14.6603C120.548 13.3095 121.014 12.1861 121.975 11.2335" fill="white"/>
<path d="M176.434 0.938477H174.357V53.4501H176.434V0.938477Z" fill="white"/>
<path d="M200.032 15.6692C200.032 16.0389 199.961 16.2806 199.82 16.3802C199.678 16.4797 199.452 16.5223 199.141 16.5223H198.251C197.63 16.5223 197.078 16.4228 196.626 16.238C196.174 16.0531 195.821 15.7403 195.566 15.2995H193.489C191.723 15.2995 190.409 14.9582 189.547 14.2757C188.699 13.5932 188.261 12.5978 188.261 11.2754C188.261 9.71133 188.741 8.57379 189.716 7.86283C190.677 7.13765 192.02 6.78217 193.73 6.78217C193.927 6.78217 194.168 6.78217 194.464 6.81061C194.761 6.82482 195.072 6.83904 195.383 6.86748C195.694 6.89592 195.99 6.91014 196.287 6.93858C196.584 6.96702 196.824 6.99546 197.036 7.02389V13.1382C197.036 13.6501 197.135 14.0766 197.333 14.4179C197.531 14.7592 197.955 14.9298 198.619 14.9298H199.127C199.424 14.9298 199.65 14.9724 199.792 15.0578C199.933 15.1431 200.018 15.3421 200.018 15.655M190.225 11.1048C190.225 12.0717 190.536 12.7542 191.158 13.1808C191.779 13.5932 192.684 13.8065 193.843 13.8065H195.157V8.38894C194.803 8.34628 194.478 8.31784 194.182 8.30363C193.885 8.28941 193.701 8.27519 193.631 8.27519C192.585 8.27519 191.751 8.48848 191.144 8.92927C190.522 9.37007 190.211 10.0952 190.211 11.1048M190.423 3.98098C190.423 3.65394 190.536 3.36955 190.762 3.14204C190.988 2.91454 191.271 2.80078 191.596 2.80078C191.921 2.80078 192.203 2.91454 192.429 3.14204C192.656 3.36955 192.769 3.65394 192.769 3.98098C192.769 4.30802 192.656 4.5924 192.429 4.81991C192.203 5.04742 191.921 5.16117 191.596 5.16117C191.271 5.16117 190.988 5.04742 190.762 4.81991C190.536 4.5924 190.423 4.30802 190.423 3.98098ZM193.32 3.98098C193.32 3.65394 193.433 3.36955 193.659 3.14204C193.885 2.91454 194.168 2.80078 194.493 2.80078C194.818 2.80078 195.1 2.91454 195.326 3.14204C195.552 3.36955 195.665 3.65394 195.665 3.98098C195.665 4.30802 195.552 4.5924 195.326 4.81991C195.1 5.04742 194.818 5.16117 194.493 5.16117C194.168 5.16117 193.885 5.04742 193.659 4.81991C193.433 4.5924 193.32 4.30802 193.32 3.98098Z" fill="white"/>
<path d="M199.156 16.5226C198.859 16.5226 198.633 16.4657 198.478 16.3661C198.336 16.2666 198.251 16.0533 198.251 15.7405C198.251 15.3708 198.322 15.1433 198.463 15.0722C198.605 15.0011 198.831 14.9584 199.142 14.9584H200.71C201.318 14.9584 201.713 14.8162 201.897 14.5461C202.081 14.2617 202.166 13.8209 202.166 13.181V6.98145H204.045V14.2048C204.045 14.3328 204.101 14.4608 204.2 14.5603C204.299 14.6598 204.441 14.7309 204.596 14.802C204.751 14.8589 204.921 14.9016 205.105 14.93C205.288 14.9584 205.444 14.9727 205.571 14.9727H206.15C206.447 14.9727 206.673 15.0153 206.815 15.1006C206.97 15.1859 207.041 15.385 207.041 15.6978C207.041 16.0675 206.97 16.3093 206.829 16.4088C206.687 16.5083 206.461 16.551 206.15 16.551H205.741C205.317 16.551 204.921 16.4799 204.596 16.3377C204.257 16.1955 203.974 15.9396 203.734 15.5841C203.565 15.8258 203.268 16.0391 202.886 16.2524C202.505 16.4515 201.925 16.551 201.148 16.551H199.156V16.5226ZM200.371 19.3664C200.371 19.0394 200.484 18.755 200.724 18.5275C200.965 18.3 201.233 18.1862 201.558 18.1862C201.883 18.1862 202.166 18.3 202.392 18.5275C202.618 18.755 202.731 19.0394 202.731 19.3664C202.731 19.6934 202.618 19.9778 202.392 20.2053C202.166 20.4328 201.883 20.5466 201.558 20.5466C201.233 20.5466 200.95 20.4328 200.724 20.2053C200.498 19.9778 200.371 19.6934 200.371 19.3664ZM203.268 19.3664C203.268 19.0394 203.381 18.755 203.607 18.5275C203.833 18.3 204.116 18.1862 204.441 18.1862C204.766 18.1862 205.048 18.3 205.274 18.5275C205.5 18.755 205.613 19.0394 205.613 19.3664C205.613 19.6934 205.5 19.9778 205.274 20.2053C205.048 20.4328 204.766 20.5466 204.441 20.5466C204.116 20.5466 203.833 20.4328 203.607 20.2053C203.381 19.9778 203.268 19.6934 203.268 19.3664Z" fill="white"/>
<path d="M213.569 14.9588C213.329 14.5891 213.159 14.1626 213.06 13.6791C212.961 13.1956 212.891 12.7122 212.82 12.2145C212.763 11.7168 212.693 11.2476 212.622 10.7784C212.551 10.3091 212.41 9.89679 212.212 9.52709C212.014 9.15739 211.732 8.85878 211.364 8.64549C210.997 8.41799 210.502 8.30423 209.852 8.30423C209.273 8.30423 208.779 8.36111 208.355 8.44642C207.931 8.54596 207.606 8.63127 207.365 8.70237V7.28045C207.634 7.15247 208.001 7.03872 208.468 6.93919C208.934 6.82543 209.485 6.76855 210.107 6.76855C211.082 6.76855 211.845 6.92497 212.424 7.22357C213.004 7.53639 213.442 7.93453 213.767 8.41799C214.092 8.90144 214.304 9.45599 214.431 10.0532C214.544 10.6646 214.643 11.2618 214.727 11.8733C214.812 12.4847 214.897 13.0535 215.01 13.5938C215.109 14.1341 215.307 14.5891 215.589 14.9446H216.904C217.2 14.9446 217.426 14.9873 217.582 15.0726C217.723 15.1579 217.808 15.357 217.808 15.6698C217.808 16.0395 217.737 16.2812 217.596 16.3808C217.455 16.4803 217.229 16.5229 216.918 16.5229H206.15C205.557 16.5229 205.26 16.2243 205.26 15.6271C205.26 15.357 205.331 15.1721 205.472 15.0868C205.613 15.0015 205.839 14.9588 206.15 14.9588H213.569Z" fill="white"/>
<path d="M221.708 7.77772C222.033 7.70663 222.443 7.62131 222.937 7.52178C223.432 7.42224 223.941 7.33693 224.478 7.25161C225.015 7.1663 225.552 7.10942 226.089 7.05254C226.626 6.99566 227.106 6.98145 227.544 6.98145C228.788 6.98145 229.819 7.12364 230.61 7.3938C231.402 7.67819 232.038 8.06211 232.49 8.54556C232.942 9.04323 233.253 9.64044 233.408 10.3372C233.578 11.0339 233.648 11.7875 233.648 12.6123V14.1906C233.648 14.3328 233.705 14.4465 233.804 14.5319C233.903 14.6314 234.03 14.7025 234.185 14.7736C234.327 14.8305 234.496 14.8731 234.68 14.9158C234.864 14.9442 235.019 14.9584 235.16 14.9584H235.584C235.881 14.9584 236.107 15.0011 236.263 15.0864C236.418 15.1717 236.489 15.3708 236.489 15.6836C236.489 16.0533 236.418 16.295 236.277 16.3946C236.135 16.4941 235.909 16.5368 235.584 16.5368H235.344C234.906 16.5368 234.525 16.4657 234.185 16.3235C233.846 16.1813 233.564 15.9253 233.323 15.5699C233.14 15.8116 232.857 16.0391 232.476 16.2382C232.094 16.4372 231.515 16.5368 230.738 16.5368H216.946C216.649 16.5368 216.423 16.4799 216.282 16.3804C216.141 16.2808 216.056 16.0675 216.056 15.7547C216.056 15.385 216.127 15.1575 216.268 15.0864C216.409 15.0153 216.635 14.9727 216.946 14.9727H219.857V6.99566H221.736V7.80616L221.708 7.77772ZM231.769 12.9962C231.769 12.2283 231.698 11.5743 231.571 11.0055C231.43 10.4509 231.19 9.96748 230.836 9.59778C230.483 9.22808 230.003 8.9437 229.395 8.75885C228.788 8.574 228.024 8.47447 227.078 8.47447C226.626 8.47447 226.159 8.5029 225.679 8.54556C225.198 8.58822 224.718 8.65931 224.223 8.73041C223.743 8.80151 223.277 8.88682 222.853 8.97214C222.415 9.05745 222.033 9.14277 221.708 9.22808V14.9584H230.314C230.921 14.9584 231.317 14.8162 231.501 14.5461C231.684 14.2617 231.769 13.8209 231.769 13.181V12.9962Z" fill="white"/>
<path d="M235.584 16.5231C235.288 16.5231 235.061 16.4662 234.92 16.3667C234.765 16.2671 234.694 16.0539 234.694 15.741C234.694 15.3713 234.765 15.1438 234.906 15.0585C235.047 14.9874 235.273 14.9448 235.584 14.9448H238.382V0.270508H240.262V16.5231H235.598H235.584Z" fill="white"/>
<path d="M245.433 0.270508H243.554V16.5231H245.433V0.270508Z" fill="white"/>
<path d="M269.059 14.9591V6.98209H270.939V16.5374H256.073C255.127 16.5374 254.349 16.2957 253.756 15.8265C253.162 15.3572 252.88 14.5609 252.88 13.4376V9.01544H254.759V13.1675C254.759 13.6793 254.858 14.1059 255.056 14.4472C255.254 14.7884 255.692 14.9591 256.342 14.9591H269.059ZM259.408 5.30422C259.408 4.97718 259.521 4.69279 259.761 4.46529C259.988 4.23778 260.27 4.12402 260.595 4.12402C260.92 4.12402 261.203 4.23778 261.429 4.46529C261.655 4.69279 261.768 4.97718 261.768 5.30422C261.768 5.63126 261.655 5.91565 261.429 6.14315C261.203 6.37066 260.92 6.48442 260.595 6.48442C260.27 6.48442 259.988 6.37066 259.761 6.14315C259.535 5.91565 259.408 5.63126 259.408 5.30422ZM262.305 5.30422C262.305 4.97718 262.418 4.69279 262.644 4.46529C262.87 4.23778 263.153 4.12402 263.478 4.12402C263.803 4.12402 264.085 4.23778 264.311 4.46529C264.538 4.69279 264.651 4.97718 264.651 5.30422C264.651 5.63126 264.538 5.91565 264.311 6.14315C264.085 6.37066 263.803 6.48442 263.478 6.48442C263.153 6.48442 262.87 6.37066 262.644 6.14315C262.418 5.91565 262.305 5.63126 262.305 5.30422Z" fill="white"/>
<path d="M278.838 15.6699C278.838 16.0396 278.767 16.2814 278.612 16.3809C278.47 16.4804 278.23 16.5231 277.919 16.5231H277.071C276.111 16.5231 275.348 16.2814 274.768 15.8121C274.189 15.3429 273.906 14.5466 273.906 13.4233V0.270508H275.786V13.1531C275.786 13.7361 275.885 14.1911 276.082 14.4897C276.28 14.8026 276.704 14.9448 277.354 14.9448H277.933C278.23 14.9448 278.456 14.9874 278.612 15.0727C278.767 15.158 278.852 15.3571 278.852 15.6699" fill="white"/>
<path d="M281.099 14.9583C280.915 14.5459 280.731 14.0056 280.548 13.38C280.35 12.7401 280.251 12.0433 280.251 11.2755C280.251 10.6641 280.35 10.0811 280.562 9.52654C280.774 8.97199 281.07 8.50275 281.48 8.10462C281.89 7.69226 282.385 7.37943 282.978 7.13771C283.572 6.89598 284.25 6.78223 285.013 6.78223C285.861 6.78223 286.581 6.92442 287.161 7.2088C287.74 7.49319 288.206 7.86289 288.574 8.3179C288.927 8.77292 289.181 9.28481 289.351 9.83936C289.506 10.4081 289.591 10.9485 289.591 11.4888C289.591 12.1429 289.492 12.7827 289.294 13.3942C289.097 14.0056 288.814 14.5317 288.447 15.0009C288.079 15.4702 287.613 15.8399 287.048 16.11C286.482 16.3802 285.847 16.5224 285.112 16.5224H277.933C277.637 16.5224 277.411 16.4655 277.269 16.366C277.114 16.2665 277.043 16.0532 277.043 15.7403C277.043 15.3706 277.114 15.1431 277.255 15.072C277.396 15.0009 277.623 14.9583 277.933 14.9583H281.113H281.099ZM284.9 14.9583C285.38 14.9583 285.79 14.8588 286.129 14.6597C286.468 14.4606 286.751 14.1904 286.977 13.8776C287.203 13.5506 287.359 13.1951 287.472 12.7685C287.57 12.3562 287.627 11.9438 287.627 11.5457C287.627 10.593 287.401 9.7967 286.949 9.1995C286.497 8.58807 285.832 8.28947 284.942 8.28947C284.603 8.28947 284.264 8.34634 283.925 8.4601C283.586 8.57385 283.303 8.74448 283.049 9.00043C282.794 9.24215 282.597 9.5692 282.441 9.95312C282.286 10.337 282.201 10.8063 282.201 11.3466C282.201 11.7305 282.243 12.1144 282.3 12.4557C282.37 12.8112 282.441 13.1382 282.54 13.451C282.639 13.7639 282.738 14.0483 282.851 14.3042C282.95 14.5601 283.049 14.7734 283.133 14.9583H284.9Z" fill="white"/>
<path d="M298.861 12.4985C298.861 11.9155 298.818 11.3752 298.748 10.8775C298.677 10.3798 298.493 9.95327 298.197 9.612C297.9 9.25652 297.462 8.98636 296.882 8.78729C296.303 8.58822 295.498 8.48868 294.466 8.48868H292.686V6.98145H294.607C295.879 6.98145 296.911 7.10942 297.716 7.35115C298.522 7.59287 299.143 7.94835 299.581 8.40337C300.019 8.85838 300.316 9.39872 300.486 10.0244C300.655 10.65 300.726 11.361 300.726 12.143V14.2048C300.726 14.3328 300.782 14.4608 300.881 14.5603C300.98 14.6598 301.122 14.7309 301.277 14.802C301.432 14.8589 301.602 14.9016 301.786 14.9442C301.969 14.9727 302.125 14.9869 302.266 14.9869H302.676C302.973 14.9869 303.199 15.0295 303.354 15.1148C303.51 15.2002 303.58 15.3992 303.58 15.7121C303.58 16.0818 303.51 16.3235 303.368 16.423C303.227 16.5226 303.001 16.5652 302.69 16.5652H302.464C302.026 16.5652 301.644 16.4941 301.305 16.3519C300.966 16.2097 300.684 15.9538 300.443 15.5983C300.274 15.84 299.991 16.0533 299.61 16.2666C299.228 16.4657 298.649 16.5652 297.872 16.5652H291.329V14.9869H297.434C298.041 14.9869 298.437 14.8447 298.62 14.5745C298.804 14.2901 298.889 13.8493 298.889 13.2095V12.5412L298.861 12.4985Z" fill="white"/>
<path d="M310.109 14.9582C309.868 14.5885 309.699 14.1477 309.6 13.6785C309.501 13.195 309.43 12.7116 309.36 12.2139C309.303 11.7162 309.232 11.247 309.162 10.7778C309.091 10.3085 308.95 9.89618 308.752 9.52648C308.554 9.15678 308.272 8.85817 307.904 8.64489C307.537 8.41738 307.042 8.30363 306.392 8.30363C305.813 8.30363 305.304 8.34628 304.894 8.44582C304.47 8.54535 304.145 8.63067 303.905 8.70176V7.27984C304.174 7.16609 304.541 7.03811 305.007 6.93858C305.474 6.82482 306.025 6.76795 306.647 6.76795C307.607 6.76795 308.385 6.92436 308.964 7.22296C309.529 7.53579 309.981 7.93393 310.306 8.41738C310.631 8.90083 310.843 9.45538 310.97 10.0526C311.084 10.664 311.197 11.2612 311.267 11.8727C311.352 12.4841 311.437 13.0528 311.55 13.5932C311.649 14.1335 311.847 14.5885 312.129 14.944H313.443C313.74 14.944 313.966 14.9867 314.107 15.072C314.263 15.1573 314.334 15.3564 314.334 15.6692C314.334 16.0389 314.263 16.2806 314.122 16.3802C313.98 16.4797 313.754 16.5223 313.443 16.5223H302.676C302.082 16.5223 301.786 16.2237 301.786 15.6265C301.786 15.3564 301.856 15.1715 301.998 15.0862C302.139 15.0009 302.365 14.9582 302.676 14.9582H310.094H310.109ZM305.544 3.98098C305.544 3.65394 305.657 3.36955 305.883 3.14204C306.11 2.91454 306.392 2.80078 306.717 2.80078C307.042 2.80078 307.325 2.91454 307.551 3.14204C307.777 3.36955 307.89 3.65394 307.89 3.98098C307.89 4.30802 307.777 4.5924 307.551 4.81991C307.311 5.04742 307.042 5.16117 306.717 5.16117C306.392 5.16117 306.11 5.04742 305.883 4.81991C305.643 4.5924 305.544 4.30802 305.544 3.98098Z" fill="white"/>
<path d="M313.458 16.5231C313.161 16.5231 312.935 16.4662 312.793 16.3667C312.652 16.2671 312.567 16.0539 312.567 15.741C312.567 15.3713 312.638 15.1438 312.779 15.0585C312.921 14.9874 313.147 14.9448 313.458 14.9448H315.026C315.634 14.9448 316.029 14.8026 316.213 14.5324C316.397 14.2622 316.482 13.8072 316.482 13.1674V0.270508H318.361V14.1911C318.361 14.3333 318.417 14.4471 318.516 14.5324C318.615 14.6319 318.757 14.703 318.912 14.7741C319.067 14.831 319.237 14.8737 319.421 14.9021C319.604 14.9305 319.76 14.9448 319.887 14.9448H320.466C320.763 14.9448 320.989 14.9874 321.13 15.0727C321.286 15.158 321.357 15.3571 321.357 15.6699C321.357 16.0396 321.286 16.2814 321.145 16.3809C321.003 16.4804 320.777 16.5231 320.466 16.5231H320.071C319.633 16.5231 319.251 16.452 318.912 16.3098C318.573 16.1676 318.29 15.9117 318.05 15.5562C317.866 15.7979 317.584 16.0112 317.202 16.2245C316.821 16.4236 316.227 16.5231 315.464 16.5231H313.472H313.458Z" fill="white"/>
<path d="M320.452 16.5231C320.155 16.5231 319.929 16.4662 319.774 16.3667C319.619 16.2671 319.548 16.0539 319.548 15.741C319.548 15.3713 319.618 15.1438 319.76 15.0585C319.901 14.9874 320.127 14.9448 320.438 14.9448H323.236V0.270508H325.115V16.5231H320.452Z" fill="white"/>
<path d="M348.628 14.9591V6.98209H350.508V16.5374H335.642C334.696 16.5374 333.919 16.2957 333.325 15.8265C332.732 15.3572 332.449 14.5609 332.449 13.4376V9.01544H334.328V13.1675C334.328 13.6793 334.427 14.1059 334.625 14.4472C334.823 14.7884 335.261 14.9591 335.911 14.9591H348.628ZM338.977 5.30422C338.977 4.97718 339.09 4.69279 339.316 4.46529C339.543 4.23778 339.825 4.12402 340.15 4.12402C340.475 4.12402 340.758 4.23778 340.984 4.46529C341.21 4.69279 341.323 4.97718 341.323 5.30422C341.323 5.63126 341.21 5.91565 340.984 6.14315C340.758 6.37066 340.475 6.48442 340.15 6.48442C339.825 6.48442 339.543 6.37066 339.316 6.14315C339.09 5.91565 338.977 5.63126 338.977 5.30422ZM341.888 5.30422C341.888 4.97718 342.001 4.69279 342.227 4.46529C342.453 4.23778 342.736 4.12402 343.061 4.12402C343.386 4.12402 343.669 4.23778 343.895 4.46529C344.121 4.69279 344.234 4.97718 344.234 5.30422C344.234 5.63126 344.121 5.91565 343.895 6.14315C343.669 6.37066 343.386 6.48442 343.061 6.48442C342.736 6.48442 342.453 6.37066 342.227 6.14315C342.001 5.91565 341.888 5.63126 341.888 5.30422Z" fill="white"/>
<path d="M355.468 0.270508H353.588V16.5231H355.468V0.270508Z" fill="white"/>
<path d="M360.074 6.96777H361.954V16.125C361.954 16.7506 361.897 17.3336 361.77 17.8739C361.657 18.4 361.431 18.8693 361.134 19.239C360.823 19.6229 360.413 19.9215 359.876 20.1348C359.34 20.3481 358.661 20.4618 357.842 20.4618H357.432V18.8835H357.686C358.605 18.8835 359.226 18.6702 359.566 18.2294C359.905 17.7886 360.074 17.0919 360.074 16.1392V6.96777Z" fill="white"/>
<path d="M369.867 15.6699C369.867 16.0396 369.796 16.2814 369.64 16.3809C369.485 16.4804 369.259 16.5231 368.948 16.5231H368.1C367.139 16.5231 366.376 16.2814 365.797 15.8121C365.218 15.3429 364.921 14.5466 364.921 13.4233V0.270508H366.8V13.1531C366.8 13.7361 366.899 14.1911 367.097 14.4897C367.295 14.7883 367.719 14.9448 368.369 14.9448H368.948C369.245 14.9448 369.471 14.9874 369.626 15.0727C369.782 15.158 369.867 15.3571 369.867 15.6699Z" fill="white"/>
<path d="M372.113 14.9583C371.93 14.5459 371.746 14.0056 371.548 13.38C371.35 12.7401 371.251 12.0433 371.251 11.2755C371.251 10.6641 371.35 10.0811 371.562 9.52654C371.774 8.97199 372.071 8.50275 372.481 8.10462C372.89 7.69226 373.385 7.37943 373.979 7.13771C374.572 6.89598 375.25 6.78223 376.013 6.78223C376.861 6.78223 377.582 6.92442 378.161 7.2088C378.741 7.49319 379.207 7.86289 379.574 8.3179C379.927 8.77292 380.182 9.28481 380.351 9.83936C380.507 10.4081 380.592 10.9485 380.592 11.4888C380.592 12.1429 380.493 12.7827 380.295 13.3942C380.097 14.0056 379.814 14.5317 379.447 15.0009C379.08 15.4702 378.613 15.8399 378.048 16.11C377.483 16.3802 376.847 16.5224 376.112 16.5224H368.934C368.637 16.5224 368.411 16.4655 368.27 16.366C368.128 16.2665 368.044 16.0532 368.044 15.7403C368.044 15.3706 368.114 15.1431 368.256 15.072C368.397 15.0009 368.623 14.9583 368.934 14.9583H372.113ZM375.914 14.9583C376.395 14.9583 376.805 14.8588 377.144 14.6597C377.483 14.4606 377.766 14.1904 377.992 13.8776C378.218 13.5506 378.373 13.1951 378.486 12.7685C378.585 12.3562 378.642 11.9438 378.642 11.5457C378.642 10.593 378.416 9.7967 377.963 9.1995C377.511 8.58807 376.847 8.28947 375.957 8.28947C375.618 8.28947 375.279 8.34634 374.939 8.4601C374.6 8.57385 374.304 8.74448 374.063 9.00043C373.809 9.24215 373.611 9.5692 373.456 9.95312C373.3 10.337 373.215 10.8063 373.215 11.3466C373.215 11.7305 373.258 12.1144 373.314 12.4557C373.385 12.8112 373.456 13.1382 373.555 13.451C373.654 13.7639 373.752 14.0483 373.851 14.3042C373.95 14.5601 374.049 14.7734 374.148 14.9583H375.914Z" fill="white"/>
<path d="M382.556 16.5373V14.959H387.134V4.1808H389.014V14.959H393.097V0.270508H394.977V16.5231H382.556V16.5373ZM390.356 22.6231H385.792V21.6136H386.823C386.696 21.2439 386.625 20.9453 386.583 20.7462C386.555 20.5471 386.527 20.3481 386.527 20.1774C386.527 19.5944 386.739 19.111 387.162 18.7129C387.586 18.3289 388.208 18.1299 389.014 18.1299C389.127 18.1299 389.296 18.1299 389.508 18.1299C389.72 18.1299 389.876 18.1441 390.003 18.1583V19.1537C389.932 19.1394 389.819 19.1252 389.664 19.1252C389.508 19.1252 389.409 19.1252 389.353 19.1252C388.802 19.1252 388.392 19.2105 388.095 19.3954C387.812 19.5802 387.671 19.9073 387.671 20.3907C387.671 20.5045 387.685 20.6751 387.728 20.86C387.77 21.059 387.841 21.315 387.968 21.6278H390.356V22.6374V22.6231Z" fill="white"/>
<path d="M400.163 0.270508H398.283V16.5231H400.163V0.270508Z" fill="white"/>
<path d="M419.352 15.6692C419.352 16.0389 419.281 16.2806 419.14 16.3802C418.999 16.4797 418.772 16.5223 418.462 16.5223H417.571C416.95 16.5223 416.398 16.4228 415.946 16.238C415.494 16.0531 415.141 15.7403 414.887 15.2995H412.809C411.043 15.2995 409.729 14.9582 408.881 14.2757C408.019 13.5932 407.595 12.5978 407.595 11.2754C407.595 9.71133 408.076 8.57379 409.037 7.86283C409.997 7.13765 411.34 6.78217 413.05 6.78217C413.247 6.78217 413.488 6.78217 413.784 6.81061C414.081 6.82482 414.392 6.83904 414.703 6.86748C415.014 6.89592 415.31 6.91014 415.607 6.93858C415.89 6.96702 416.144 6.99546 416.356 7.02389V13.1382C416.356 13.6501 416.455 14.0766 416.653 14.4179C416.851 14.7592 417.275 14.9298 417.939 14.9298H418.447C418.744 14.9298 418.97 14.9724 419.112 15.0578C419.267 15.1431 419.338 15.3421 419.338 15.655M409.545 11.1048C409.545 12.0717 409.856 12.7542 410.478 13.1808C411.1 13.5932 412.004 13.8065 413.163 13.8065H414.477V8.38894C414.124 8.34628 413.799 8.31784 413.502 8.30363C413.205 8.28941 413.021 8.27519 412.951 8.27519C411.905 8.27519 411.071 8.48848 410.45 8.92927C409.828 9.37007 409.531 10.0952 409.531 11.1048M409.743 3.98098C409.743 3.65394 409.856 3.36955 410.082 3.14204C410.308 2.91454 410.591 2.80078 410.916 2.80078C411.241 2.80078 411.524 2.91454 411.75 3.14204C411.976 3.36955 412.089 3.65394 412.089 3.98098C412.089 4.30802 411.976 4.5924 411.75 4.81991C411.524 5.04742 411.241 5.16117 410.916 5.16117C410.591 5.16117 410.308 5.04742 410.082 4.81991C409.856 4.5924 409.743 4.30802 409.743 3.98098ZM412.654 3.98098C412.654 3.65394 412.767 3.36955 412.993 3.14204C413.219 2.91454 413.502 2.80078 413.827 2.80078C414.152 2.80078 414.434 2.91454 414.66 3.14204C414.887 3.36955 415 3.65394 415 3.98098C415 4.30802 414.887 4.5924 414.66 4.81991C414.434 5.04742 414.152 5.16117 413.827 5.16117C413.502 5.16117 413.219 5.04742 412.993 4.81991C412.767 4.5924 412.654 4.30802 412.654 3.98098Z" fill="white"/>
<path d="M418.49 16.5231C418.193 16.5231 417.967 16.4662 417.812 16.3667C417.656 16.2672 417.6 16.0539 417.6 15.741C417.6 15.3713 417.67 15.1438 417.812 15.0585C417.953 14.9874 418.179 14.9448 418.49 14.9448H422.178V8.9869H424.057V14.9448H427.971V8.9869H429.851V14.9448H432.267C432.875 14.9448 433.27 14.8026 433.454 14.5324C433.638 14.2622 433.723 13.8072 433.723 13.1674V6.96777H435.602V14.1911C435.602 14.3333 435.658 14.4471 435.757 14.5324C435.856 14.6319 435.998 14.703 436.153 14.7741C436.308 14.831 436.478 14.8737 436.662 14.9021C436.831 14.9305 437.001 14.9448 437.128 14.9448H437.736C438.032 14.9448 438.258 14.9874 438.4 15.0727C438.555 15.1581 438.626 15.3571 438.626 15.6699C438.626 16.0396 438.555 16.2814 438.414 16.3809C438.273 16.4804 438.046 16.5231 437.736 16.5231H437.312C436.874 16.5231 436.492 16.452 436.153 16.3098C435.814 16.1676 435.531 15.9117 435.291 15.5562C435.121 15.7979 434.825 16.0112 434.443 16.2245C434.062 16.4236 433.468 16.5231 432.705 16.5231H418.518H418.49Z" fill="white"/>
<path d="M437.721 16.5231C437.425 16.5231 437.199 16.4662 437.057 16.3667C436.902 16.2672 436.831 16.0539 436.831 15.741C436.831 15.3713 436.902 15.1438 437.043 15.0585C437.185 14.9874 437.411 14.9448 437.721 14.9448H441.636V8.9869H443.515V14.9448H447.5V8.9869H449.379V14.9448H453.18V6.96777H455.06V16.5231H437.736H437.721Z" fill="white"/>
<path d="M466.265 16.5228C466.237 17.1342 466.138 17.6887 465.982 18.1722C465.827 18.6556 465.573 19.068 465.219 19.4093C464.88 19.7505 464.414 20.0065 463.863 20.1771C463.312 20.3619 462.619 20.4473 461.8 20.4473H459.073V18.94H461.8C462.69 18.94 463.34 18.7552 463.736 18.3713C464.131 17.9873 464.357 17.3759 464.4 16.5228H463.086C461.913 16.5228 460.966 16.3663 460.245 16.0535C459.539 15.7407 458.974 15.3426 458.578 14.8591C458.182 14.3756 457.928 13.8638 457.787 13.295C457.66 12.7262 457.589 12.2001 457.589 11.7024C457.589 10.963 457.702 10.3089 457.928 9.69752C458.154 9.08609 458.521 8.5742 459.002 8.14762C459.482 7.70683 460.104 7.37978 460.867 7.13806C461.63 6.89633 462.535 6.78258 463.608 6.78258C463.99 6.78258 464.442 6.81101 464.937 6.85367C465.431 6.89633 465.898 6.93899 466.307 6.96743V14.9444H468.385C468.681 14.9444 468.907 14.9871 469.063 15.0724C469.204 15.1577 469.289 15.3568 469.289 15.6696C469.289 16.0393 469.218 16.281 469.077 16.3806C468.936 16.4801 468.71 16.5228 468.385 16.5228H466.293H466.265ZM459.44 11.7166C459.44 12.3139 459.525 12.8258 459.708 13.2381C459.892 13.6505 460.147 13.9775 460.472 14.2335C460.811 14.4894 461.206 14.6743 461.658 14.788C462.125 14.9018 462.633 14.9586 463.213 14.9586H464.4V8.31825C464.287 8.31825 464.145 8.28981 464.018 8.28981C463.891 8.28981 463.75 8.28981 463.623 8.28981C463.199 8.28981 462.732 8.31825 462.238 8.36091C461.743 8.41779 461.291 8.55998 460.881 8.78749C460.472 9.01499 460.118 9.37048 459.85 9.82549C459.581 10.2805 459.44 10.9204 459.44 11.7309M465.12 5.14736H459.822V4.03826H461.023C460.867 3.56903 460.754 3.22777 460.726 2.98604C460.683 2.74431 460.669 2.5168 460.669 2.2893C460.669 1.62099 460.91 1.06644 461.404 0.639866C461.899 0.213289 462.605 0 463.552 0C463.693 0 463.877 0 464.117 0C464.357 0 464.555 0.0142192 464.682 0.0284385V1.1091C464.612 1.1091 464.485 1.08066 464.315 1.08066C464.145 1.08066 464.018 1.08066 463.948 1.08066C463.312 1.08066 462.817 1.16598 462.492 1.33661C462.167 1.50724 461.998 1.87694 461.998 2.44571C461.998 2.63056 462.026 2.82963 462.068 3.07135C462.111 3.31308 462.224 3.64012 462.379 4.03826H465.106V5.14736H465.12Z" fill="white"/>
<path d="M471.536 14.9583C471.352 14.5459 471.168 14.0056 470.971 13.38C470.773 12.7401 470.674 12.0433 470.674 11.2755C470.674 10.6641 470.773 10.0811 470.985 9.52654C471.197 8.97199 471.493 8.50275 471.903 8.10462C472.313 7.69226 472.808 7.37943 473.401 7.13771C473.995 6.89598 474.673 6.78223 475.436 6.78223C476.284 6.78223 477.004 6.92442 477.584 7.2088C478.163 7.49319 478.629 7.86289 478.997 8.3179C479.35 8.77292 479.604 9.28481 479.774 9.83936C479.929 10.4081 480.014 10.9485 480.014 11.4888C480.014 12.1429 479.915 12.7827 479.717 13.3942C479.52 14.0056 479.237 14.5317 478.87 15.0009C478.502 15.4702 478.036 15.8399 477.471 16.11C476.905 16.3802 476.27 16.5224 475.535 16.5224H468.357C468.06 16.5224 467.834 16.4655 467.692 16.366C467.551 16.2665 467.466 16.0532 467.466 15.7403C467.466 15.3706 467.537 15.1431 467.678 15.072C467.82 15.0009 468.046 14.9583 468.357 14.9583H471.536ZM475.337 14.9583C475.817 14.9583 476.227 14.8588 476.566 14.6597C476.906 14.4606 477.188 14.1904 477.414 13.8776C477.64 13.5506 477.796 13.1951 477.909 12.7685C478.008 12.3562 478.064 11.9438 478.064 11.5457C478.064 10.593 477.838 9.7967 477.386 9.1995C476.934 8.58807 476.27 8.28947 475.379 8.28947C475.04 8.28947 474.701 8.34634 474.362 8.4601C474.023 8.57385 473.726 8.74448 473.486 9.00043C473.232 9.24215 473.034 9.5692 472.878 9.95312C472.723 10.337 472.638 10.8063 472.638 11.3466C472.638 11.7305 472.68 12.1144 472.737 12.4557C472.808 12.8112 472.878 13.1382 472.977 13.451C473.076 13.7639 473.175 14.0483 473.274 14.3042C473.373 14.5601 473.472 14.7734 473.571 14.9583H475.337Z" fill="white"/>
<path d="M189.25 54.6869V38.0361H199.509V39.714H191.384V45.2453H199.17V46.9232H191.384V53.009H199.834V54.6869H189.25Z" fill="white"/>
<path d="M219.362 54.6876V47.8197C219.362 47.3505 219.32 46.9097 219.249 46.4973C219.179 46.085 219.037 45.7437 218.84 45.4451C218.642 45.1465 218.373 44.9048 218.02 44.7341C217.681 44.5635 217.243 44.464 216.706 44.464C216.127 44.464 215.646 44.5635 215.265 44.7626C214.883 44.9616 214.572 45.2318 214.346 45.5731C214.12 45.9143 213.95 46.3125 213.852 46.7675C213.753 47.2225 213.71 47.7202 213.71 48.2463V54.7018H211.69V47.9477C211.69 47.4784 211.647 47.0234 211.591 46.5968C211.52 46.1703 211.393 45.8006 211.195 45.4877C210.997 45.1749 210.743 44.919 210.39 44.7341C210.05 44.5493 209.598 44.4497 209.047 44.4497C208.496 44.4497 208.058 44.5635 207.677 44.7768C207.295 44.9901 206.984 45.2745 206.744 45.6157C206.504 45.957 206.32 46.3693 206.207 46.8244C206.094 47.2794 206.037 47.7486 206.037 48.2321V54.6876H204.017V47.0376C204.017 45.7153 203.988 44.3929 203.946 43.0563H205.938L206.009 44.9901C206.829 43.6108 208.058 42.9141 209.669 42.9141C210.587 42.9141 211.336 43.0989 211.93 43.4686C212.523 43.8383 213.004 44.4497 213.357 45.3171C214.162 43.7246 215.505 42.9141 217.37 42.9141C218.175 42.9141 218.84 43.042 219.362 43.298C219.885 43.5539 220.295 43.8952 220.592 44.336C220.889 44.7768 221.101 45.3029 221.214 45.9001C221.327 46.5115 221.383 47.1656 221.383 47.8766V54.7018H219.362V54.6876Z" fill="white"/>
<path d="M226.159 38.0361H228.406V40.0837H226.159V38.0361ZM226.272 43.0555H228.293V54.6869H226.272V43.0555Z" fill="white"/>
<path d="M238.947 44.8761C238.778 44.8761 238.608 44.8476 238.439 44.8476C237.252 44.8476 236.418 45.1605 235.966 45.8003C235.514 46.4402 235.273 47.3076 235.273 48.4167V54.6874H233.253V46.4544C233.253 45.3169 233.225 44.1793 233.182 43.0418H235.146L235.245 44.9045C235.655 44.2078 236.15 43.7243 236.715 43.4257C237.28 43.1271 237.972 42.9707 238.764 42.9707C238.863 42.9707 238.976 42.9707 239.089 42.9707C239.202 42.9707 239.301 42.9849 239.4 42.9991V44.9187C239.244 44.8903 239.089 44.8619 238.919 44.8476" fill="white"/>
<path d="M250.124 54.6871C250.082 54.4454 250.04 54.1752 249.997 53.8766C249.955 53.578 249.927 53.3078 249.912 53.0519C249.418 53.7628 248.853 54.2463 248.217 54.5307C247.581 54.8008 246.832 54.943 245.998 54.943C245.461 54.943 244.953 54.8719 244.458 54.7297C243.963 54.5876 243.54 54.3743 243.158 54.0899C242.777 53.8055 242.48 53.45 242.268 53.0234C242.042 52.5969 241.929 52.085 241.929 51.4878C241.929 50.6062 242.141 49.9094 242.565 49.3975C242.988 48.8856 243.525 48.4875 244.175 48.2173C244.825 47.9472 245.532 47.7765 246.323 47.7054C247.1 47.6343 247.835 47.5917 248.542 47.5917C248.754 47.5917 248.952 47.5917 249.149 47.5917C249.347 47.5917 249.517 47.6059 249.686 47.6201V46.9234C249.686 46.0276 249.503 45.345 249.121 44.8474C248.74 44.3497 248.09 44.108 247.143 44.108C246.422 44.108 245.871 44.2644 245.461 44.563C245.052 44.8616 244.811 45.4019 244.741 46.1698H242.777C242.805 45.5441 242.946 45.0038 243.2 44.5772C243.455 44.1506 243.78 43.7952 244.175 43.5392C244.571 43.2833 245.023 43.0842 245.532 42.9704C246.041 42.8567 246.564 42.7998 247.115 42.7998C248.598 42.7998 249.7 43.1126 250.421 43.7383C251.142 44.3639 251.509 45.4446 251.509 46.966V51.2602C251.509 52.0281 251.552 52.7248 251.636 53.3505C251.721 53.9761 251.806 54.4169 251.877 54.6729H250.11L250.124 54.6871ZM249.701 48.8572C249.46 48.8288 249.262 48.8145 249.121 48.8145H248.669C248.231 48.8145 247.722 48.843 247.185 48.8856C246.634 48.9283 246.125 49.042 245.645 49.2127C245.165 49.3833 244.769 49.6535 244.444 49.9805C244.119 50.3218 243.963 50.791 243.963 51.3882C243.963 51.7437 244.034 52.0565 244.175 52.3267C244.317 52.6111 244.5 52.8386 244.741 53.0234C244.981 53.2083 245.249 53.3505 245.56 53.4358C245.871 53.5211 246.182 53.578 246.521 53.578C247.256 53.578 247.835 53.45 248.245 53.1798C248.669 52.9097 248.98 52.5542 249.206 52.1134C249.432 51.6726 249.573 51.1607 249.63 50.5919C249.686 50.0232 249.729 49.4544 249.729 48.8572" fill="white"/>
<path d="M260.129 54.8011C259.196 54.8011 258.49 54.5878 258.024 54.1754C257.557 53.763 257.317 53.0663 257.317 52.0994V44.4495H255.042V43.0417H257.317V40.7809L259.338 39.9277V43.0417H261.924V44.4495H259.338V51.2889C259.338 51.6444 259.352 51.943 259.38 52.1847C259.408 52.4264 259.479 52.6255 259.592 52.7819C259.705 52.9383 259.875 53.0521 260.072 53.109C260.284 53.1801 260.553 53.2085 260.906 53.2085C261.09 53.2085 261.259 53.2085 261.429 53.1801C261.599 53.1516 261.782 53.1232 261.98 53.0947V54.6446C261.344 54.7442 260.722 54.7868 260.129 54.7868" fill="white"/>
<path d="M266.841 49.255V49.4825C266.841 50.0228 266.912 50.5347 267.053 51.0324C267.194 51.5301 267.42 51.9566 267.703 52.3406C267.986 52.7245 268.353 53.0231 268.791 53.2506C269.229 53.4781 269.738 53.5918 270.317 53.5918C271.137 53.5918 271.815 53.3643 272.338 52.8951C272.861 52.4259 273.171 51.7718 273.299 50.9471H275.22C274.994 52.3121 274.415 53.3217 273.511 53.9758C272.592 54.6299 271.476 54.9569 270.162 54.9569C269.257 54.9569 268.48 54.8147 267.816 54.5303C267.152 54.2459 266.601 53.8478 266.163 53.3217C265.725 52.7956 265.386 52.1841 265.159 51.459C264.933 50.7338 264.834 49.9517 264.834 49.0844C264.834 48.217 264.948 47.3923 265.159 46.6529C265.386 45.8992 265.725 45.2452 266.163 44.6906C266.615 44.1361 267.18 43.6953 267.873 43.3682C268.565 43.0412 269.37 42.8848 270.317 42.8848C271.264 42.8848 272.083 43.0554 272.719 43.4109C273.355 43.7664 273.878 44.2356 274.26 44.8186C274.641 45.4016 274.91 46.0841 275.065 46.8519C275.22 47.6198 275.291 48.4303 275.291 49.2692H266.841V49.255ZM273.299 47.8899C273.299 47.4207 273.242 46.9657 273.129 46.5107C273.016 46.0699 272.832 45.6717 272.578 45.3447C272.324 45.0034 272.013 44.7333 271.617 44.5342C271.221 44.3351 270.769 44.2214 270.261 44.2214C269.752 44.2214 269.257 44.3209 268.862 44.52C268.466 44.719 268.127 44.9892 267.858 45.3305C267.59 45.6717 267.364 46.0699 267.208 46.5107C267.053 46.9515 266.94 47.4065 266.898 47.8899H273.313H273.299Z" fill="white"/>
<path d="M287.811 51.3317C287.811 52 287.669 52.5545 287.401 53.0095C287.133 53.4645 286.765 53.8485 286.313 54.1328C285.861 54.4172 285.352 54.6305 284.801 54.7585C284.25 54.8865 283.685 54.9576 283.119 54.9576C282.512 54.9576 281.933 54.8865 281.381 54.7585C280.83 54.6305 280.35 54.4172 279.94 54.1186C279.53 53.82 279.205 53.4361 278.965 52.9527C278.725 52.4834 278.612 51.8862 278.612 51.1752H280.632C280.675 51.9857 280.929 52.583 281.367 52.9669C281.805 53.3508 282.427 53.5499 283.218 53.5499C283.529 53.5499 283.826 53.5072 284.137 53.4361C284.448 53.365 284.716 53.237 284.971 53.0806C285.225 52.9242 285.423 52.7109 285.592 52.4692C285.748 52.2275 285.833 51.9289 285.833 51.5734C285.833 51.2748 285.762 51.0046 285.635 50.7913C285.508 50.578 285.324 50.3932 285.098 50.2226C284.872 50.0661 284.603 49.924 284.292 49.8244C283.981 49.7107 283.671 49.6253 283.331 49.5543L282.399 49.3267C281.975 49.213 281.551 49.085 281.127 48.9428C280.703 48.7864 280.336 48.5873 280.011 48.3598C279.686 48.1181 279.417 47.8195 279.219 47.464C279.022 47.1085 278.923 46.6677 278.923 46.1416C278.923 45.5444 279.05 45.0325 279.318 44.6202C279.587 44.1936 279.926 43.8523 280.35 43.5822C280.774 43.312 281.24 43.1272 281.777 43.0134C282.3 42.8997 282.823 42.8428 283.317 42.8428C283.897 42.8428 284.434 42.8997 284.942 43.0418C285.451 43.1698 285.889 43.3689 286.271 43.6533C286.652 43.9234 286.949 44.2931 287.175 44.7339C287.401 45.1747 287.528 45.7293 287.556 46.3691H285.564C285.536 45.6724 285.31 45.1321 284.914 44.7624C284.504 44.3927 283.967 44.2078 283.275 44.2078C283.021 44.2078 282.738 44.2363 282.455 44.3074C282.173 44.3642 281.918 44.4638 281.692 44.606C281.466 44.7482 281.268 44.9188 281.113 45.1463C280.957 45.3738 280.887 45.6297 280.887 45.9426C280.887 46.4829 281.127 46.8953 281.607 47.1939C282.088 47.4925 282.667 47.72 283.36 47.8906L284.278 48.1181C284.787 48.2461 285.253 48.3883 285.691 48.5589C286.129 48.7295 286.497 48.9428 286.808 49.1988C287.118 49.4547 287.373 49.7533 287.556 50.1088C287.74 50.4643 287.825 50.8909 287.825 51.4028" fill="white"/>
<path d="M310.914 54.6869V46.9943H302.337V54.6869H300.203V38.0361H302.337V45.2879H310.914V38.0361H313.048V54.6869H310.914Z" fill="white"/>
<path d="M319.576 49.255V49.4825C319.576 50.0228 319.647 50.5347 319.788 51.0324C319.929 51.5301 320.155 51.9566 320.438 52.3406C320.721 52.7245 321.088 53.0231 321.526 53.2506C321.964 53.4781 322.473 53.5918 323.052 53.5918C323.872 53.5918 324.55 53.3643 325.073 52.8951C325.596 52.4259 325.921 51.7718 326.034 50.9471H327.956C327.729 52.3121 327.15 53.3217 326.246 53.9758C325.327 54.6299 324.211 54.9569 322.897 54.9569C321.992 54.9569 321.215 54.8147 320.551 54.5303C319.887 54.2459 319.336 53.8478 318.898 53.3217C318.46 52.7956 318.121 52.1841 317.895 51.459C317.668 50.7338 317.57 49.9517 317.57 49.0844C317.57 48.217 317.683 47.3923 317.895 46.6529C318.121 45.8992 318.46 45.2452 318.898 44.6906C319.35 44.1361 319.915 43.6953 320.608 43.3682C321.3 43.0412 322.105 42.8848 323.052 42.8848C323.999 42.8848 324.819 43.0554 325.454 43.4109C326.09 43.7664 326.613 44.2356 326.995 44.8186C327.376 45.4016 327.645 46.0841 327.8 46.8519C327.956 47.6198 328.026 48.4303 328.026 49.2692H319.576V49.255ZM326.034 47.8899C326.034 47.4207 325.977 46.9657 325.864 46.5107C325.751 46.0699 325.567 45.6717 325.313 45.3447C325.059 45.0034 324.748 44.7333 324.352 44.5342C323.957 44.3351 323.504 44.2214 322.996 44.2214C322.487 44.2214 321.992 44.3209 321.597 44.52C321.201 44.719 320.862 44.9892 320.594 45.3305C320.325 45.6717 320.099 46.0699 319.943 46.5107C319.788 46.9515 319.675 47.4065 319.633 47.8899H326.048H326.034Z" fill="white"/>
<path d="M339.486 54.6871C339.444 54.4454 339.401 54.1752 339.359 53.8766C339.316 53.578 339.288 53.3078 339.274 53.0519C338.779 53.7628 338.214 54.2463 337.578 54.5307C336.943 54.8008 336.194 54.943 335.36 54.943C334.823 54.943 334.314 54.8719 333.82 54.7297C333.325 54.5876 332.901 54.3743 332.52 54.0899C332.138 53.8055 331.841 53.45 331.629 53.0234C331.403 52.5969 331.304 52.085 331.304 51.4878C331.304 50.6062 331.516 49.9094 331.94 49.3975C332.364 48.8856 332.901 48.4875 333.551 48.2173C334.201 47.9472 334.908 47.7765 335.699 47.7054C336.476 47.6343 337.211 47.5917 337.918 47.5917C338.129 47.5917 338.327 47.5917 338.525 47.5917C338.723 47.5917 338.893 47.6059 339.062 47.6201V46.9234C339.062 46.0276 338.878 45.345 338.497 44.8474C338.115 44.3497 337.465 44.108 336.519 44.108C335.798 44.108 335.247 44.2644 334.837 44.563C334.427 44.8616 334.187 45.4019 334.116 46.1698H332.152C332.181 45.5441 332.322 45.0038 332.576 44.5772C332.831 44.1506 333.156 43.7952 333.551 43.5392C333.947 43.2833 334.399 43.0842 334.908 42.9704C335.416 42.8567 335.939 42.7998 336.49 42.7998C337.974 42.7998 339.076 43.1126 339.797 43.7383C340.518 44.3639 340.885 45.4446 340.885 46.966V51.2602C340.885 52.0281 340.927 52.7248 341.012 53.3505C341.097 53.9761 341.182 54.4169 341.252 54.6729H339.486V54.6871ZM339.062 48.8572C338.822 48.8288 338.624 48.8145 338.483 48.8145H338.031C337.593 48.8145 337.084 48.843 336.547 48.8856C335.996 48.9283 335.487 49.042 335.007 49.2127C334.526 49.3833 334.131 49.6535 333.806 49.9805C333.481 50.3218 333.325 50.791 333.325 51.3882C333.325 51.7437 333.396 52.0565 333.537 52.3267C333.678 52.6111 333.862 52.8386 334.102 53.0234C334.343 53.2083 334.611 53.3505 334.922 53.4358C335.233 53.5211 335.544 53.578 335.883 53.578C336.618 53.578 337.197 53.45 337.607 53.1798C338.031 52.9097 338.341 52.5542 338.568 52.1134C338.794 51.6726 338.935 51.1607 338.991 50.5919C339.048 50.0232 339.09 49.4544 339.09 48.8572" fill="white"/>
<path d="M347.95 38.0361H345.929V54.7011H347.95V38.0361Z" fill="white"/>
<path d="M356.471 54.8011C355.538 54.8011 354.832 54.5878 354.365 54.1754C353.885 53.763 353.659 53.0663 353.659 52.0994V44.4495H351.384V43.0417H353.659V40.7809L355.679 39.9277V43.0417H358.265V44.4495H355.679V51.2889C355.679 51.6444 355.694 51.943 355.722 52.1847C355.75 52.4264 355.821 52.6255 355.934 52.7819C356.047 52.9383 356.216 53.0521 356.414 53.109C356.626 53.1801 356.895 53.2085 357.248 53.2085C357.432 53.2085 357.601 53.2085 357.771 53.1801C357.94 53.1516 358.124 53.1232 358.322 53.0947V54.6446C357.686 54.7442 357.064 54.7868 356.471 54.7868" fill="white"/>
<path d="M369.895 54.6874V48.2319C369.895 47.72 369.867 47.2365 369.824 46.7815C369.782 46.3265 369.669 45.9141 369.485 45.5729C369.301 45.2316 369.033 44.9472 368.68 44.7482C368.326 44.5349 367.832 44.4353 367.224 44.4353C366.617 44.4353 366.15 44.5491 365.74 44.7766C365.331 45.0041 365.006 45.3169 364.751 45.6866C364.497 46.0563 364.313 46.4971 364.2 46.9948C364.087 47.4925 364.031 48.0044 364.031 48.5305V54.6874H362.01V38.0225H364.031V44.8619C364.483 44.2078 365.02 43.7102 365.627 43.3831C366.235 43.0561 366.942 42.8854 367.775 42.8854C368.538 42.8854 369.188 42.985 369.711 43.1983C370.234 43.4115 370.658 43.7102 370.997 44.0941C371.322 44.4922 371.562 44.9614 371.704 45.5302C371.845 46.0848 371.916 46.7389 371.916 47.4498V54.6874H369.895Z" fill="white"/>
<path d="M396.093 50.0376C396.093 50.9192 395.909 51.6586 395.542 52.2842C395.174 52.9099 394.708 53.4075 394.115 53.8057C393.535 54.1896 392.871 54.474 392.122 54.6588C391.373 54.8294 390.624 54.929 389.875 54.929C389.126 54.929 388.363 54.8437 387.685 54.673C387.007 54.5024 386.399 54.2322 385.876 53.8483C385.354 53.4786 384.916 52.9952 384.591 52.398C384.266 51.8007 384.068 51.0756 384.011 50.2224H386.23C386.258 50.7627 386.385 51.2178 386.583 51.5875C386.795 51.9572 387.063 52.27 387.403 52.5259C387.742 52.7677 388.123 52.9525 388.561 53.0663C388.999 53.18 389.466 53.2369 389.946 53.2369C390.398 53.2369 390.865 53.18 391.331 53.0805C391.797 52.9809 392.221 52.7961 392.603 52.5686C392.984 52.3269 393.295 52.0283 393.535 51.6586C393.775 51.2889 393.888 50.8338 393.888 50.3077C393.888 49.8812 393.804 49.5115 393.62 49.1986C393.436 48.8858 393.196 48.6156 392.899 48.3881C392.603 48.1606 392.249 47.9616 391.854 47.8051C391.458 47.6487 391.048 47.4923 390.61 47.3501L389.183 46.9093C388.59 46.7245 388.01 46.5254 387.445 46.2979C386.88 46.0704 386.371 45.8002 385.933 45.459C385.495 45.1177 385.128 44.7054 384.873 44.2219C384.605 43.7242 384.478 43.127 384.478 42.4018C384.478 41.5771 384.647 40.8662 384.986 40.2974C385.325 39.7286 385.763 39.2452 386.315 38.8897C386.866 38.52 387.487 38.2498 388.18 38.0792C388.872 37.9086 389.579 37.8232 390.299 37.8232C391.02 37.8232 391.656 37.8943 392.306 38.0365C392.956 38.1787 393.535 38.4062 394.03 38.7333C394.538 39.0603 394.948 39.5011 395.259 40.0414C395.57 40.5818 395.74 41.2501 395.754 42.0464H393.578C393.535 41.5629 393.422 41.1648 393.238 40.8235C393.055 40.4965 392.815 40.2263 392.518 40.013C392.221 39.7997 391.882 39.6575 391.5 39.5722C391.119 39.4869 390.709 39.4442 390.285 39.4442C389.861 39.4442 389.423 39.5011 388.985 39.5864C388.547 39.686 388.166 39.8424 387.812 40.0699C387.473 40.2974 387.191 40.5818 386.979 40.9373C386.767 41.2927 386.654 41.7193 386.654 42.2028C386.654 42.5725 386.738 42.8995 386.908 43.1839C387.078 43.4683 387.318 43.71 387.586 43.9233C387.855 44.1366 388.166 44.3072 388.505 44.4494C388.844 44.5916 389.155 44.7196 389.466 44.8333L391.345 45.459C391.938 45.658 392.518 45.8713 393.083 46.0988C393.648 46.3263 394.157 46.6107 394.595 46.9378C395.033 47.279 395.4 47.6914 395.669 48.1891C395.952 48.6867 396.079 49.3124 396.079 50.066" fill="white"/>
<path d="M401.59 49.255V49.4825C401.59 50.0228 401.66 50.5347 401.802 51.0324C401.943 51.5301 402.169 51.9566 402.452 52.3406C402.734 52.7245 403.102 53.0231 403.54 53.2506C403.978 53.4781 404.487 53.5918 405.066 53.5918C405.885 53.5918 406.564 53.3643 407.087 52.8951C407.609 52.4259 407.934 51.7718 408.047 50.9471H409.969C409.743 52.3121 409.164 53.3217 408.259 53.9758C407.341 54.6299 406.225 54.9569 404.91 54.9569C404.006 54.9569 403.229 54.8147 402.565 54.5303C401.901 54.2459 401.35 53.8478 400.912 53.3217C400.473 52.7956 400.134 52.1841 399.908 51.459C399.682 50.7338 399.583 49.9517 399.583 49.0844C399.583 48.217 399.696 47.3923 399.908 46.6529C400.134 45.8992 400.473 45.2452 400.912 44.6906C401.364 44.1361 401.929 43.6953 402.621 43.3682C403.314 43.0412 404.119 42.8848 405.066 42.8848C406.013 42.8848 406.832 43.0554 407.468 43.4109C408.104 43.7664 408.627 44.2356 409.008 44.8186C409.39 45.4016 409.658 46.0841 409.814 46.8519C409.969 47.6198 410.04 48.4303 410.04 49.2692H401.59V49.255ZM408.047 47.8899C408.047 47.4207 407.991 46.9657 407.878 46.5107C407.765 46.0699 407.581 45.6717 407.327 45.3447C407.072 45.0034 406.762 44.7333 406.366 44.5342C405.97 44.3351 405.518 44.2214 405.009 44.2214C404.501 44.2214 404.006 44.3209 403.61 44.52C403.215 44.719 402.876 44.9892 402.607 45.3305C402.339 45.6717 402.113 46.0699 401.957 46.5107C401.802 46.9515 401.689 47.4065 401.646 47.8899H408.062H408.047Z" fill="white"/>
<path d="M419.832 44.8761C419.663 44.8761 419.493 44.8476 419.323 44.8476C418.136 44.8476 417.303 45.1605 416.851 45.8003C416.384 46.4402 416.158 47.3076 416.158 48.4167V54.6874H414.138V46.4544C414.138 45.3169 414.109 44.1793 414.067 43.0418H416.031L416.13 44.9045C416.54 44.2078 417.034 43.7243 417.6 43.4257C418.165 43.1271 418.857 42.9707 419.648 42.9707C419.747 42.9707 419.86 42.9707 419.973 42.9707C420.086 42.9707 420.185 42.9849 420.284 42.9991V44.9187C420.129 44.8903 419.973 44.8619 419.804 44.8476" fill="white"/>
<path d="M428.904 54.687H426.799L422.107 43.0557H424.396L427.985 52.739L431.659 43.0557H433.708L428.904 54.687Z" fill="white"/>
<path d="M436.916 38.0361H439.163V40.0837H436.916V38.0361ZM437.029 43.0555H439.05V54.6869H437.029V43.0555Z" fill="white"/>
<path d="M453.194 52.625C452.926 53.1511 452.573 53.5777 452.135 53.9332C451.696 54.2744 451.202 54.5304 450.623 54.701C450.043 54.8716 449.436 54.9569 448.771 54.9569C447.853 54.9569 447.048 54.8147 446.355 54.5161C445.663 54.2175 445.083 53.8194 444.603 53.2933C444.123 52.7672 443.769 52.1415 443.529 51.4164C443.289 50.6912 443.162 49.8807 443.162 49.0133C443.162 48.1459 443.289 47.2928 443.529 46.5249C443.769 45.7571 444.137 45.0888 444.617 44.5342C445.098 43.9797 445.691 43.5389 446.398 43.2261C447.104 42.9132 447.938 42.7568 448.885 42.7568C450.199 42.7568 451.287 43.0839 452.135 43.7522C452.982 44.4205 453.477 45.4443 453.604 46.8235H451.64C451.583 45.9988 451.315 45.3447 450.834 44.8755C450.368 44.4063 449.718 44.1788 448.885 44.1788C448.192 44.1788 447.627 44.321 447.161 44.5911C446.708 44.8755 446.341 45.231 446.058 45.6718C445.776 46.1126 445.592 46.6245 445.465 47.1932C445.338 47.762 445.281 48.345 445.281 48.928C445.281 49.4825 445.338 50.0371 445.465 50.5916C445.592 51.1462 445.79 51.6439 446.073 52.0989C446.355 52.5397 446.723 52.9094 447.161 53.1795C447.599 53.4639 448.15 53.5919 448.786 53.5919C449.633 53.5919 450.326 53.3359 450.82 52.8241C451.329 52.3122 451.612 51.6296 451.668 50.7765H453.576L453.646 50.8049C453.604 51.5017 453.449 52.0989 453.18 52.625" fill="white"/>
<path d="M458.677 49.255V49.4825C458.677 50.0228 458.748 50.5347 458.889 51.0324C459.03 51.5301 459.256 51.9566 459.539 52.3406C459.822 52.7245 460.189 53.0231 460.627 53.2506C461.065 53.4781 461.574 53.5918 462.153 53.5918C462.973 53.5918 463.651 53.3643 464.174 52.8951C464.697 52.4259 465.022 51.7718 465.135 50.9471H467.056C466.83 52.3121 466.251 53.3217 465.347 53.9758C464.428 54.6299 463.312 54.9569 461.998 54.9569C461.093 54.9569 460.316 54.8147 459.652 54.5303C458.988 54.2459 458.437 53.8478 457.999 53.3217C457.561 52.7956 457.222 52.1841 456.995 51.459C456.769 50.7338 456.67 49.9517 456.67 49.0844C456.67 48.217 456.783 47.3923 456.995 46.6529C457.222 45.8992 457.561 45.2452 457.999 44.6906C458.451 44.1361 459.016 43.6953 459.708 43.3682C460.401 43.0412 461.206 42.8848 462.153 42.8848C463.1 42.8848 463.919 43.0554 464.555 43.4109C465.191 43.7664 465.714 44.2356 466.095 44.8186C466.477 45.4016 466.746 46.0841 466.901 46.8519C467.056 47.6198 467.127 48.4303 467.127 49.2692H458.677V49.255ZM465.135 47.8899C465.135 47.4207 465.078 46.9657 464.965 46.5107C464.852 46.0699 464.668 45.6717 464.414 45.3447C464.16 45.0034 463.849 44.7333 463.453 44.5342C463.057 44.3351 462.605 44.2214 462.097 44.2214C461.588 44.2214 461.093 44.3209 460.698 44.52C460.302 44.719 459.963 44.9892 459.694 45.3305C459.426 45.6717 459.2 46.0699 459.044 46.5107C458.889 46.9515 458.776 47.4065 458.733 47.8899H465.149H465.135Z" fill="white"/>
<path d="M479.647 51.3317C479.647 52 479.505 52.5545 479.237 53.0095C478.968 53.4645 478.601 53.8485 478.149 54.1328C477.697 54.4172 477.202 54.6305 476.637 54.7585C476.086 54.8865 475.521 54.9576 474.955 54.9576C474.348 54.9576 473.768 54.8865 473.217 54.7585C472.666 54.6305 472.186 54.4172 471.776 54.1186C471.366 53.82 471.041 53.4361 470.801 52.9527C470.561 52.4834 470.448 51.8862 470.448 51.1752H472.468C472.511 51.9857 472.765 52.583 473.203 52.9669C473.641 53.3508 474.263 53.5499 475.054 53.5499C475.365 53.5499 475.662 53.5072 475.973 53.4361C476.284 53.365 476.552 53.237 476.806 53.0806C477.061 52.9242 477.259 52.7109 477.428 52.4692C477.584 52.2275 477.668 51.9289 477.668 51.5734C477.668 51.2748 477.598 51.0046 477.471 50.7913C477.343 50.578 477.16 50.3932 476.934 50.2226C476.708 50.0661 476.439 49.924 476.128 49.8244C475.817 49.7107 475.506 49.6253 475.167 49.5543L474.235 49.3267C473.811 49.213 473.387 49.085 472.963 48.9428C472.539 48.7864 472.172 48.5873 471.847 48.3598C471.522 48.1181 471.253 47.8195 471.055 47.464C470.858 47.1085 470.759 46.6677 470.759 46.1416C470.759 45.5444 470.886 45.0325 471.154 44.6202C471.423 44.1936 471.762 43.8523 472.186 43.5822C472.61 43.312 473.076 43.1272 473.613 43.0134C474.136 42.8997 474.659 42.8428 475.153 42.8428C475.733 42.8428 476.27 42.8997 476.778 43.0418C477.287 43.1698 477.725 43.3689 478.107 43.6533C478.488 43.9234 478.785 44.2931 479.011 44.7339C479.237 45.1747 479.35 45.7293 479.392 46.3691H477.4C477.372 45.6724 477.146 45.1321 476.75 44.7624C476.34 44.3927 475.803 44.2078 475.111 44.2078C474.857 44.2078 474.574 44.2363 474.291 44.3074C474.009 44.3642 473.754 44.4638 473.528 44.606C473.302 44.7482 473.104 44.9188 472.949 45.1463C472.793 45.3738 472.723 45.6297 472.723 45.9426C472.723 46.4829 472.963 46.8953 473.443 47.1939C473.924 47.4925 474.503 47.72 475.196 47.8906L476.114 48.1181C476.623 48.2461 477.089 48.3883 477.527 48.5589C477.965 48.7295 478.333 48.9428 478.643 49.1988C478.954 49.4547 479.209 49.7533 479.392 50.1088C479.576 50.4643 479.661 50.8909 479.661 51.4028" fill="white"/>
</g>
</g>
<defs>
<clipPath id="clip0_222_1303">
<rect width="480" height="55" fill="white"/>
</clipPath>
</defs>
</svg>
