<svg width="100" height="100" viewBox="0 0 100 100" fill="none" xmlns="http://www.w3.org/2000/svg">
<g clip-path="url(#clip0_222_1096)">
<path d="M52.0958 17.2584L49.15 14.3126L55.4167 8.0501L58.3625 10.9959L52.0958 17.2584ZM41.6667 4.7251H37.5V16.5293H41.6667V4.7251ZM29.75 14.3084L23.4875 8.05426L20.5417 11.0001L26.8042 17.2626L29.75 14.3084ZM79.0625 59.2584C79.104 58.4409 78.9751 57.6236 78.6841 56.8585C78.3931 56.0934 77.9463 55.3971 77.372 54.8138C76.7977 54.2304 76.1084 53.7728 75.3479 53.4699C74.5874 53.1671 73.7723 53.0255 72.9542 53.0543C71.9862 53.0681 71.0208 53.1572 70.0667 53.3209L69.8917 53.2543C69.4029 52.2476 68.6326 51.4043 67.6741 50.8266C66.7156 50.249 65.6101 49.9619 64.4917 50.0001C63.6672 49.9528 62.8407 50.0429 62.0458 50.2668C61.3331 48.8346 60.1902 47.6613 58.7773 46.9111C57.3644 46.161 55.7523 45.8716 54.1667 46.0834C52.7468 46.0569 51.3342 46.2928 50 46.7793V28.7501C49.9686 27.6944 49.7269 26.6556 49.289 25.6946C48.851 24.7335 48.2257 23.8695 47.4496 23.1532C46.6735 22.4368 45.7623 21.8826 44.7693 21.5229C43.7763 21.1632 42.7215 21.0053 41.6667 21.0584C40.6119 21.0053 39.5571 21.1632 38.5641 21.5229C37.571 21.8826 36.6598 22.4368 35.8837 23.1532C35.1076 23.8695 34.4823 24.7335 34.0444 25.6946C33.6064 26.6556 33.3647 27.6944 33.3333 28.7501V57.7251L29.0792 52.6668C28.5876 51.8805 27.9396 51.2037 27.1756 50.6783C26.4115 50.1529 25.5476 49.7902 24.6375 49.6126C22.8594 49.1767 20.9829 49.4157 19.3708 50.2834C18.623 50.7114 17.9733 51.2915 17.4637 51.9862C16.9541 52.681 16.596 53.4749 16.4125 54.3168C16.0449 55.9274 16.2931 57.6174 17.1083 59.0543L26.0833 77.3043L39.9167 94.2376L43.1375 91.5918L29.7167 75.2543L20.7833 57.0918C20.4499 56.5334 20.3398 55.8696 20.475 55.2334C20.5338 54.9532 20.6516 54.6887 20.8204 54.4574C20.9892 54.2261 21.2052 54.0333 21.4542 53.8918C22.1598 53.5567 22.961 53.4815 23.7167 53.6793C24.1203 53.758 24.5031 53.9202 24.8403 54.1556C25.1776 54.3909 25.4619 54.6942 25.675 55.0459L37.5 69.1668V28.7501C37.5321 28.2414 37.6666 27.7444 37.8956 27.2889C38.1245 26.8335 38.4431 26.4291 38.8323 26.0998C39.2214 25.7706 39.6731 25.5234 40.1602 25.3731C40.6472 25.2228 41.1597 25.1724 41.6667 25.2251C42.1737 25.1724 42.6861 25.2228 43.1732 25.3731C43.6602 25.5234 44.1119 25.7706 44.5011 26.0998C44.8902 26.4291 45.2088 26.8335 45.4378 27.2889C45.6667 27.7444 45.8013 28.2414 45.8333 28.7501V58.3334H50V52.5876C50 51.0334 51.4 50.2459 54.1667 50.2459C55.725 50.2459 58.3333 50.5501 58.3333 52.5876V58.3334H62.5V55.9876C62.5 54.4876 62.9625 54.0293 64.4917 54.0293C66.6042 54.0293 66.6667 56.8793 66.6667 57.2043V61.6334H70.8333V57.3334L70.8125 57.3418L70.8333 57.3084V57.3334C70.8792 57.3126 72.3417 57.2209 72.95 57.2209C73.4875 57.2209 75 57.8709 75 60.3918C75.0917 61.4126 75 72.8584 75 77.4459C74.9994 81.2198 74.3467 84.9651 73.0708 88.5168C72.4042 90.2709 70.7375 93.6043 70.7375 93.6043L74.5625 95.3959C74.5625 95.3959 75.6958 92.8709 76.2208 91.5418C77.1178 89.4416 77.7761 87.2473 78.1833 85.0001C78.8076 80.4009 79.136 75.7664 79.1667 71.1251L79.0625 59.2584Z" fill="white"/>
</g>
<defs>
<clipPath id="clip0_222_1096">
<rect width="100" height="100" fill="white"/>
</clipPath>
</defs>
</svg>
